# xmcd
#
# Track frame offsets:
#	150
#	12912
#	26550
#	38012
#	51975
#	66662
#	78537
#	90425
#	105025
#	118025
#	128087
#	142587
#	157025
#	171275
#	185700
#	197950
#
# Disc length: 2802 seconds
#
# Revision: 1
# Processed by: cddbd v1.4b42PL1 Copyright (c) Steve Scherf et al.
# Submitted via: audiograbber 1.80
#
DISCID=d40af010
DTITLE=Judy Garland - Over the rainbow
DYEAR=1900
DGENRE=
TTITLE0=Over the rainbow
TTITLE1=I'm always chasing rainbows
TTITLE2=For me and my Gal
TTITLE3=The boy next door
TTITLE4=On the Atchison, Topeka and the Santa Fe
TTITLE5=When you wore a tulip
TTITLE6=Friendship
TTITLE7=Embraceable you
TTITLE8=The trolley song
TTITLE9=Meet me in St. Louis
TTITLE10=Dear Mr Gable..You made me love you
TTITLE11=But not for me
TTITLE12=Bidin' my time
TTITLE13=The birthday of a King
TTITLE14=Poor you
TTITLE15=Have yourself a merry little Christmas
EXTD=
EXTT0=
EXTT1=
EXTT2=
EXTT3=
EXTT4=
EXTT5=
EXTT6=
EXTT7=
EXTT8=
EXTT9=
EXTT10=
EXTT11=
EXTT12=
EXTT13=
EXTT14=
EXTT15=
PLAYORDER=
